<?xml version="1.0" standalone="no"?>
<!DOCTYPE svg PUBLIC "-//W3C//DTD SVG 20010904//EN"
 "http://www.w3.org/TR/2001/REC-SVG-20010904/DTD/svg10.dtd">
<svg version="1.0" xmlns="http://www.w3.org/2000/svg"
 width="1038.000000pt" height="892.000000pt" viewBox="0 0 1038.000000 892.000000"
 preserveAspectRatio="xMidYMid meet">
<metadata>
Created by potrace 1.16, written by Peter Selinger 2001-2019
</metadata>
<g transform="translate(0.000000,892.000000) scale(0.100000,-0.100000)"
fill="#000000" stroke="none">
<path d="M6237 8510 c-105 -27 -232 -126 -273 -215 -17 -35 -24 -68 -24 -111
0 -59 -1 -61 -37 -85 -21 -13 -52 -43 -70 -67 -26 -35 -33 -53 -33 -90 0 -50
35 -137 63 -161 23 -19 21 -28 -8 -35 -38 -10 -214 -147 -282 -220 -57 -61
-153 -225 -153 -262 0 -24 -23 -64 -37 -64 -40 0 -132 -70 -159 -122 -18 -35
-18 -119 0 -162 19 -46 80 -112 133 -143 l43 -25 0 -734 0 -734 -52 0 c-29 0
-231 -14 -448 -30 -217 -16 -398 -30 -402 -30 -4 0 -96 116 -205 258 -252 328
-265 342 -313 342 -22 0 -59 -12 -91 -29 -52 -27 -423 -219 -1036 -534 -161
-82 -309 -164 -329 -181 -23 -20 -38 -45 -44 -71 -6 -23 -10 -509 -10 -1131 0
-1044 1 -1092 18 -1107 35 -32 15 -33 2061 114 464 33 845 58 847 56 2 -1 1
-265 -3 -585 l-6 -582 -43 -25 c-54 -32 -108 -94 -122 -144 -16 -52 -15 -144
2 -184 19 -46 48 -68 123 -92 l66 -22 22 -66 c27 -80 57 -132 136 -236 72 -96
132 -151 219 -199 36 -19 67 -37 69 -38 2 -2 -8 -30 -23 -63 -54 -121 -28
-248 63 -299 l41 -23 0 -67 c0 -81 30 -153 81 -197 44 -37 138 -80 219 -101
91 -23 286 -16 350 13 93 42 185 182 197 300 5 47 12 65 38 94 20 22 37 56 45
89 15 62 9 165 -13 205 l-15 30 77 48 c42 27 114 88 161 136 92 93 135 163
185 304 28 77 29 79 81 102 93 41 141 153 115 268 -10 46 -21 63 -61 101 -26
25 -60 48 -74 52 -19 5 -27 14 -32 42 -7 38 1 1260 8 1267 7 7 580 55 744 62
l151 6 171 -224 c220 -288 265 -339 301 -339 44 0 185 62 686 303 421 202 799
393 834 423 l32 27 -3 1118 -3 1118 -21 28 -22 28 -133 -2 c-114 -1 -1263 -81
-2419 -167 -173 -13 -317 -21 -320 -19 -3 3 -6 303 -8 667 l-3 663 38 6 c95
15 160 154 133 282 -14 70 -52 115 -120 144 -56 24 -60 30 -84 121 -28 104
-73 176 -166 271 -62 62 -108 99 -172 134 l-87 48 30 55 c51 97 38 167 -49
263 -52 56 -52 57 -52 123 0 37 -7 83 -15 102 -21 51 -118 139 -194 176 -60
30 -74 33 -171 35 -58 1 -122 -2 -143 -7z m280 -84 c68 -31 136 -95 157 -149
8 -18 16 -56 19 -84 l6 -53 -117 1 c-106 2 -111 2 -50 9 38 3 71 9 74 13 10
10 -6 27 -25 27 -21 0 -71 36 -71 51 0 5 16 19 35 30 19 12 35 27 35 34 0 21
-76 76 -127 91 -77 23 -163 16 -163 -14 0 -8 6 -23 14 -31 13 -14 13 -20 0
-47 -8 -17 -31 -46 -49 -64 -30 -29 -43 -34 -95 -38 -33 -2 -60 -8 -60 -12 0
-13 64 -31 138 -40 56 -6 43 -8 -85 -9 l-153 -1 0 45 c0 106 109 225 239 262
77 22 205 12 278 -21z m250 -388 c82 -85 85 -136 15 -223 l-23 -29 -377 -4
c-447 -4 -452 -3 -494 73 -37 67 -36 105 4 150 65 75 59 74 468 75 l366 0 41
-42z m21 -352 c78 -40 191 -125 279 -209 80 -77 84 -83 110 -164 18 -58 23
-87 15 -95 -7 -7 -291 -12 -860 -16 l-851 -5 10 44 c30 134 193 319 376 426
24 14 67 29 96 33 29 4 215 8 415 9 l363 1 47 -24z m549 -569 c52 -28 79 -101
63 -171 -10 -47 -47 -101 -80 -117 -19 -10 -241 -14 -955 -17 l-930 -4 -55 52
c-30 29 -38 38 -18 21 46 -37 57 -39 283 -46 209 -7 1270 11 1489 25 129 8
153 12 182 32 65 44 80 121 31 165 -55 50 -127 60 -360 48 l-148 -7 25 -42 25
-42 -23 -40 c-12 -21 -35 -45 -51 -53 -41 -20 -279 -30 -715 -30 -394 -1 -626
11 -671 35 -52 26 -51 102 1 129 31 16 40 35 18 35 -7 0 -30 -5 -50 -11 -46
-12 -70 -51 -71 -115 0 -51 -5 -51 -17 1 -10 45 3 96 35 132 22 27 29 28 132
34 59 3 495 5 968 5 802 -1 862 -2 892 -19z m-1782 -1054 c-6 -672 -9 -763
-24 -763 -18 0 -21 101 -21 758 l0 682 26 0 25 0 -6 -677z m510 559 c-198
-101 -265 -139 -402 -230 l-23 -14 0 181 0 181 328 0 327 -1 -230 -117z m1114
-487 c1 -337 -10 -710 -20 -693 -11 16 -12 1250 -1 1275 9 24 19 -242 21 -582z
m-109 130 l0 -215 -26 -10 c-14 -6 -30 -10 -36 -10 -7 0 -9 65 -6 211 4 192 6
213 23 225 44 32 45 26 45 -201z m-235 -75 l0 -213 -125 -47 c-348 -131 -804
-362 -1005 -509 l-70 -51 -3 217 c-1 119 1 220 5 224 13 12 395 228 580 328
233 126 577 277 608 267 6 -2 10 -82 10 -216z m3178 -892 c9 -156 9 -1686 1
-1766 l-7 -60 -46 -6 c-44 -6 -446 -35 -1726 -126 -313 -22 -856 -60 -1205
-85 -2672 -189 -4328 -305 -4364 -305 -7 0 0 1930 7 1936 4 3 983 75 2492 184
539 39 1194 86 1455 105 261 19 916 66 1455 105 539 39 1180 86 1425 104 245
19 459 34 476 35 l31 1 6 -122z m-2833 -2748 c0 -516 -8 -798 -21 -765 -9 24
-12 1246 -3 1270 19 49 24 -52 24 -505z m-342 449 l-3 -41 -160 -58 c-390
-141 -363 -127 -872 -438 l-183 -112 0 203 0 202 53 29 c28 16 117 67 197 115
l145 85 345 27 c190 15 376 27 413 28 l68 1 -3 -41z m-1291 -671 l6 -568 -32
0 -31 0 5 408 c7 515 14 762 22 775 18 30 24 -95 30 -615z m1507 96 c3 -9 6
-162 6 -340 l0 -324 -177 0 -178 0 42 26 c56 33 165 162 205 241 32 65 32 69
47 370 1 13 29 43 41 43 4 0 11 -7 14 -16z m-216 -183 l-3 -139 -48 -95 c-53
-108 -111 -172 -184 -208 -70 -34 -249 -43 -623 -33 l-304 9 156 103 c156 101
404 244 568 327 145 73 389 172 429 174 11 1 13 -25 9 -138z m494 -591 c62
-51 71 -129 22 -199 -38 -54 -31 -53 -804 -58 -793 -5 -1095 3 -1148 31 -39
20 -92 90 -92 122 0 37 30 91 59 105 32 16 417 24 1301 27 l625 2 37 -30z
m-125 -353 c7 -8 -59 -167 -88 -210 -50 -76 -200 -212 -274 -248 l-66 -32
-412 -5 -412 -5 -55 28 c-158 79 -287 211 -374 382 -38 76 -35 91 17 96 48 6
1658 -1 1664 -6z m-482 -577 c59 -13 85 -49 85 -116 0 -30 -6 -70 -14 -88 -28
-68 -17 -66 -456 -66 l-397 0 -20 23 c-51 56 -56 116 -17 195 l25 51 82 4
c190 7 675 6 712 -3z m-27 -352 c35 -35 -8 -159 -73 -217 -73 -64 -109 -73
-269 -69 l-141 3 -67 38 c-37 20 -80 53 -96 73 -39 47 -57 110 -43 147 10 27
11 27 103 25 56 -1 73 -3 42 -5 -39 -3 -57 -10 -74 -28 -13 -14 -21 -28 -17
-31 3 -3 38 2 77 12 64 17 74 17 97 4 60 -34 89 -145 49 -189 l-19 -21 46 0
c56 0 168 23 222 45 83 35 134 110 121 180 l-7 34 -107 4 -107 3 126 2 c86 1
129 -2 137 -10z"/>
<path d="M5910 7946 c0 -37 31 -89 72 -119 23 -17 52 -22 199 -30 193 -10 477
2 522 23 33 16 62 62 71 112 10 55 -9 55 -62 0 -55 -58 -81 -68 -234 -84 -193
-20 -391 18 -496 96 -28 20 -55 36 -61 36 -6 0 -11 -15 -11 -34z"/>
<path d="M6223 7693 c-24 -2 -43 -6 -43 -9 0 -3 11 -22 25 -42 48 -71 24 -123
-85 -185 -132 -74 -246 -93 -436 -74 l-81 9 -32 -75 c-17 -42 -31 -83 -31 -93
0 -16 39 -17 643 -10 705 7 967 14 967 27 0 5 -17 9 -39 9 -60 0 -208 28 -249
48 -23 10 -38 25 -40 38 -4 29 39 78 104 119 30 19 54 40 53 47 0 19 -171 140
-226 162 -64 24 -384 42 -530 29z"/>
<path d="M9611 5317 c-45 -23 -83 -82 -89 -136 -8 -87 32 -81 167 26 91 71
103 89 77 109 -24 17 -122 18 -155 1z"/>
<path d="M9755 5181 c-97 -65 -160 -125 -152 -144 5 -14 20 -17 74 -17 109 0
163 48 167 149 1 60 -14 62 -89 12z"/>
<path d="M8845 4948 c-114 -10 -241 -49 -297 -91 -68 -51 -91 -108 -91 -225 1
-149 29 -200 140 -252 238 -112 313 -152 323 -171 7 -11 14 -45 17 -74 5 -48
3 -56 -20 -79 -30 -29 -68 -34 -88 -10 -8 10 -15 52 -17 111 l-4 95 -32 -6
c-17 -3 -97 -11 -178 -17 l-148 -12 6 -56 c21 -210 51 -256 189 -297 86 -26
272 -23 378 5 93 24 189 73 222 113 34 40 48 98 49 198 1 182 -43 233 -293
340 -84 36 -137 66 -164 92 -36 34 -39 41 -34 75 4 23 17 47 32 61 31 26 35
27 60 8 14 -10 20 -30 23 -80 4 -59 6 -66 26 -66 33 1 318 29 321 32 1 2 -1
42 -5 90 -14 161 -60 196 -290 221 -19 2 -75 0 -125 -5z"/>
<path d="M8275 4880 c-60 -4 -113 -8 -117 -9 -5 0 -8 -46 -8 -101 0 -99 0
-101 26 -110 l26 -10 -26 -25 c-32 -29 -38 -95 -8 -95 59 1 165 82 195 149 17
38 39 215 26 209 -2 -1 -53 -5 -114 -8z"/>
<path d="M7574 4850 c-173 -25 -335 -126 -363 -226 -15 -52 -15 -683 0 -721
26 -69 108 -125 218 -149 85 -18 148 -18 255 1 164 29 279 95 329 189 21 39
22 55 25 346 5 379 3 399 -49 455 -81 88 -246 130 -415 105z m80 -196 c18 -17
22 -154 17 -494 -2 -149 -5 -179 -20 -200 -11 -15 -28 -25 -42 -25 -36 0 -40
45 -37 393 3 297 4 314 22 328 25 18 41 18 60 -2z"/>
<path d="M2823 4839 c-42 -12 -49 -26 -26 -51 23 -26 222 -168 236 -168 17 0
1 117 -22 154 -23 37 -92 77 -132 75 -13 0 -38 -5 -56 -10z"/>
<path d="M6510 4744 c-86 -23 -180 -73 -231 -124 -64 -64 -69 -95 -71 -430 -2
-331 6 -387 62 -441 20 -19 63 -48 96 -63 56 -27 66 -28 199 -28 108 1 158 6
220 22 143 37 241 114 270 212 12 44 39 250 32 253 -3 2 -320 -26 -354 -31
l-33 -5 0 -114 c0 -105 -2 -116 -22 -135 -25 -23 -37 -25 -74 -8 l-27 13 6
328 c7 364 10 380 65 385 44 4 52 -21 52 -173 l0 -124 63 4 c214 17 312 26
319 33 11 11 -10 232 -27 282 -27 77 -78 120 -171 145 -76 20 -298 19 -374 -1z"/>
<path d="M2727 4733 c-10 -9 -8 -63 3 -102 13 -48 54 -87 105 -101 37 -10 52
-10 99 5 31 10 56 21 56 26 0 9 -234 179 -248 179 -5 0 -12 -3 -15 -7z"/>
<path d="M5560 4675 c-150 -34 -276 -111 -313 -193 -21 -45 -22 -60 -22 -367
0 -349 4 -380 55 -438 16 -18 55 -46 87 -63 54 -27 68 -29 186 -32 209 -6 344
32 448 126 32 28 53 58 63 90 16 45 44 258 35 266 -2 3 -89 -3 -192 -12 l-187
-17 0 -91 c0 -124 -7 -152 -41 -169 -22 -12 -33 -13 -54 -3 l-26 12 3 341 c3
371 4 375 58 375 45 0 52 -19 58 -161 l5 -132 126 7 c142 8 238 19 248 30 12
11 -14 249 -32 294 -24 58 -82 106 -157 127 -84 23 -265 29 -348 10z"/>
<path d="M4915 4610 c-66 -4 -139 -11 -162 -15 l-43 -7 0 -529 0 -529 28 0
c39 0 261 19 300 25 l32 6 0 529 c0 499 -1 530 -17 528 -10 0 -72 -4 -138 -8z"/>
<path d="M4485 4562 c-74 -2 -397 -31 -401 -35 -4 -4 -74 -399 -74 -418 0 -10
-4 -19 -8 -19 -5 0 -28 95 -52 211 l-44 212 -110 -7 c-61 -3 -168 -11 -238
-18 l-128 -11 0 -533 0 -533 28 4 c15 2 80 7 144 11 67 3 124 11 134 18 14 11
17 47 22 302 l6 289 56 -287 c31 -158 59 -290 62 -293 10 -10 212 15 225 28 7
7 38 154 70 327 l58 315 3 -324 2 -324 99 7 c115 9 209 20 216 28 3 3 4 241 3
529 l-3 524 -70 -3z"/>
<path d="M9678 3809 c-10 -5 -18 -16 -18 -24 0 -14 86 -91 168 -150 61 -43 72
-39 72 31 0 80 -77 154 -159 154 -25 0 -54 -5 -63 -11z"/>
<path d="M9587 3723 c-4 -3 -7 -29 -7 -57 0 -95 62 -166 145 -166 57 0 107 18
103 38 -3 18 -207 192 -224 192 -6 0 -14 -3 -17 -7z"/>
<path d="M2804 3306 c-39 -17 -71 -58 -84 -107 -11 -41 -5 -105 11 -115 18
-11 239 170 239 197 0 36 -104 52 -166 25z"/>
<path d="M2940 3159 c-88 -69 -140 -120 -140 -136 0 -7 12 -15 28 -19 15 -3
32 -7 39 -9 23 -7 87 20 119 50 49 46 72 155 34 163 -8 1 -44 -21 -80 -49z"/>
<path d="M6210 1660 c-377 -4 -710 -11 -740 -15 -72 -10 -120 -54 -120 -110 0
-50 49 -100 107 -110 71 -11 110 13 58 37 -30 13 -55 64 -55 112 l0 36 648 -1
c356 0 667 -4 692 -7 41 -6 47 -11 70 -54 l25 -47 -23 -24 c-53 -56 -19 -67
207 -67 174 1 218 9 253 49 36 41 39 114 6 156 -38 49 -70 55 -265 53 -98 -1
-486 -5 -863 -8z"/>
<path d="M5544 1249 c10 -59 45 -129 66 -129 10 0 39 10 66 21 41 18 59 21
124 15 228 -19 399 -120 402 -238 1 -23 -7 -38 -32 -58 -63 -51 -48 -54 273
-46 l290 7 80 47 c89 53 182 133 175 153 -2 7 -28 18 -56 24 -60 14 -89 36
-109 83 -18 42 -5 88 35 123 l27 24 -60 6 c-33 4 -336 7 -674 8 l-614 1 7 -41z"/>
<path d="M6053 700 c-23 -5 -51 -14 -63 -20 -20 -11 -45 -58 -36 -67 2 -2 25
3 50 11 26 9 91 23 146 33 109 18 165 42 99 43 -20 0 -63 2 -95 4 -32 3 -78 1
-101 -4z"/>
<path d="M6470 703 c-55 -11 -35 -22 104 -57 149 -37 186 -42 186 -27 0 15
-49 61 -75 71 -31 12 -179 21 -215 13z"/>
</g>
</svg>
