<?xml version="1.0" standalone="no"?>
<!DOCTYPE svg PUBLIC "-//W3C//DTD SVG 20010904//EN"
 "http://www.w3.org/TR/2001/REC-SVG-20010904/DTD/svg10.dtd">
<svg version="1.0" xmlns="http://www.w3.org/2000/svg"
 width="1312.000000pt" height="1749.000000pt" viewBox="0 0 1312.000000 1749.000000"
 preserveAspectRatio="xMidYMid meet">

<g transform="translate(0.000000,1749.000000) scale(0.100000,-0.100000)"
fill="#000000" stroke="none">
<path d="M6760 17477 c-3 -3 -77 -10 -165 -16 -198 -14 -412 -50 -618 -102
-207 -53 -321 -92 -358 -124 -21 -17 -42 -25 -69 -25 -21 0 -90 -9 -153 -20
-270 -46 -543 -165 -739 -321 -53 -42 -113 -76 -223 -124 -235 -105 -492 -254
-690 -399 -78 -57 -329 -251 -389 -299 -21 -18 -84 -61 -140 -97 -56 -36 -145
-96 -199 -133 -62 -44 -163 -99 -280 -153 -100 -47 -234 -114 -297 -150 -149
-84 -318 -205 -341 -244 -19 -30 -19 -31 0 -20 11 5 26 10 33 10 7 -1 -68 -42
-167 -93 -188 -96 -234 -124 -274 -165 -22 -22 -22 -24 -3 -18 11 4 23 3 26
-2 2 -4 -30 -21 -72 -36 -42 -16 -142 -54 -222 -86 -80 -31 -211 -74 -292 -94
-155 -39 -327 -95 -518 -169 -78 -31 -138 -47 -188 -52 -57 -6 -72 -10 -68
-21 7 -18 -4 -17 -28 1 -11 8 -25 15 -32 15 -17 0 -26 -28 -15 -48 13 -25 -11
-86 -47 -120 -41 -39 -91 -141 -109 -226 -17 -81 -11 -186 14 -248 8 -21 13
-51 10 -66 -7 -33 25 -249 54 -376 26 -110 90 -299 126 -370 121 -242 341
-434 597 -521 170 -58 404 -91 556 -80 78 6 233 28 287 42 21 5 14 -20 -91
-333 -141 -418 -170 -494 -336 -869 -152 -345 -204 -491 -226 -636 -25 -168
-1 -324 72 -476 44 -92 64 -115 199 -228 135 -113 189 -171 306 -328 114 -153
145 -216 168 -347 11 -58 28 -141 39 -185 39 -154 44 -217 28 -371 -30 -278
-53 -350 -253 -767 -276 -579 -374 -831 -357 -926 12 -68 66 -236 90 -277 81
-143 406 -311 656 -340 l47 -5 7 -55 c8 -66 0 -156 -22 -241 -15 -56 -15 -67
0 -137 24 -106 110 -275 181 -356 80 -91 82 -96 55 -166 -38 -103 -52 -207
-39 -304 26 -197 77 -245 420 -389 80 -34 153 -67 162 -74 13 -9 22 -51 37
-157 26 -187 63 -339 98 -404 62 -117 313 -321 504 -411 142 -67 386 -98 758
-98 l245 0 215 52 c589 144 784 212 1015 351 l84 51 123 -41 c161 -54 308
-126 383 -186 132 -109 226 -252 265 -406 30 -121 67 -384 85 -598 17 -219 36
-379 66 -554 21 -123 34 -163 69 -206 25 -31 63 -208 115 -535 153 -966 190
-1159 241 -1271 62 -137 96 -167 228 -200 54 -14 75 -15 105 -5 21 6 85 16
142 21 226 23 490 83 631 144 126 54 281 148 443 266 83 60 166 118 185 129
19 10 325 251 680 535 l645 516 608 758 608 757 531 815 c487 746 553 854 791
1275 193 342 260 470 263 500 2 22 6 52 9 66 9 40 -22 168 -50 211 -34 51
-105 89 -244 132 -462 144 -646 211 -830 302 -263 130 -521 286 -521 315 0 4
-17 37 -39 73 -21 36 -46 90 -54 118 -17 55 -51 394 -41 410 3 5 8 42 10 81 2
40 6 90 9 112 3 22 7 56 9 75 3 19 12 68 20 108 9 40 18 87 21 105 11 75 30
139 73 242 69 168 119 324 146 453 13 64 24 124 24 132 0 8 3 31 7 50 3 19 8
52 10 72 2 21 6 42 9 47 4 5 8 30 10 55 3 26 8 56 11 69 4 14 3 17 -2 9 -9
-12 -8 117 1 198 5 49 221 724 341 1067 122 347 264 884 300 1131 5 32 9 60
20 125 44 256 62 520 70 987 3 214 6 254 24 315 25 83 69 272 76 328 3 21 7
42 9 46 3 4 8 29 11 56 4 28 9 61 11 75 4 28 11 80 19 155 3 28 7 88 10 135 2
47 7 117 10 155 6 64 -7 306 -22 400 l-6 40 20 -24 c20 -24 21 -24 30 -5 18
33 24 194 12 299 -6 55 -12 125 -14 155 -8 124 -119 458 -225 672 -112 225
-238 393 -415 551 -274 244 -569 372 -939 407 -137 12 -337 -7 -512 -49 -132
-33 -515 -159 -688 -227 -61 -24 -112 -42 -114 -39 -2 2 -8 41 -13 87 -23 206
-104 391 -253 583 -186 238 -460 422 -804 539 -160 55 -289 81 -499 101 -137
13 -178 13 -315 1 l-157 -14 -101 44 c-165 73 -312 104 -565 119 -55 3 -118 8
-140 11 -22 3 -42 3 -45 1z m-1623 -4120 c26 -24 30 -34 23 -52 -9 -24 -3 -65
10 -65 4 0 18 10 32 23 48 43 68 57 69 49 1 -4 2 -14 3 -22 2 -8 3 -23 4 -32
3 -26 16 -22 57 13 37 33 43 30 21 -10 -14 -26 -11 -55 5 -45 5 3 9 1 9 -5 0
-5 -5 -13 -11 -17 -21 -12 -118 -228 -144 -319 -14 -49 -34 -155 -44 -236 -18
-134 -18 -157 -5 -282 22 -212 79 -381 176 -518 49 -70 119 -119 143 -99 12
10 12 16 1 39 -18 35 -36 158 -29 196 5 26 8 20 20 -40 46 -231 211 -576 345
-721 35 -38 84 -74 101 -74 11 0 15 45 6 62 -20 37 -38 169 -49 344 -5 99 -12
211 -15 249 l-6 70 53 -100 c29 -55 113 -190 187 -300 259 -389 341 -604 466
-1230 29 -148 70 -373 91 -500 20 -126 40 -240 45 -252 12 -33 32 -20 59 38
13 27 26 49 30 49 3 0 11 -30 17 -67 18 -104 42 -104 96 1 l31 61 9 -75 c12
-112 22 -155 34 -153 12 3 18 -30 28 -157 11 -139 31 -132 114 40 35 71 66
142 70 157 7 23 9 17 15 -37 11 -98 25 -173 35 -183 4 -4 15 -2 24 7 13 14 15
13 21 -7 3 -12 6 -34 6 -49 0 -90 74 9 158 213 56 135 185 329 391 589 92 116
252 293 258 286 3 -3 -2 -15 -11 -28 -20 -28 -21 -58 -2 -58 8 0 51 27 96 61
l82 60 20 -21 c14 -15 26 -19 41 -14 16 5 7 -10 -34 -57 -86 -99 -81 -98 52 8
369 296 525 392 719 445 71 19 109 23 235 22 131 0 157 -3 206 -22 130 -52
227 -152 305 -317 71 -152 101 -350 91 -609 -9 -233 -49 -388 -161 -636 -140
-307 -313 -567 -624 -939 -178 -213 -285 -305 -417 -360 -51 -22 -76 -25 -165
-26 -97 0 -109 2 -152 28 -90 52 -188 195 -208 302 -13 71 -32 99 -59 90 -13
-4 -26 13 -56 75 -21 44 -41 78 -43 76 -7 -8 59 -227 123 -406 37 -102 70
-207 75 -235 11 -68 71 -221 119 -303 103 -177 253 -275 546 -356 143 -40 210
-49 365 -48 168 0 277 15 520 71 278 63 382 76 498 63 161 -19 428 -95 652
-187 166 -68 411 -189 725 -359 160 -86 301 -159 315 -162 14 -3 40 -12 58
-20 46 -20 52 -17 15 7 -18 12 -33 26 -33 31 0 6 -8 17 -17 25 -31 25 8 2 102
-60 173 -115 366 -293 448 -413 92 -135 123 -280 115 -544 l-5 -155 -85 -150
c-47 -82 -326 -519 -620 -970 l-534 -820 -294 -365 c-161 -201 -434 -542 -607
-757 l-315 -393 -158 -127 c-549 -445 -1113 -895 -1128 -900 -9 -4 -66 -44
-127 -89 -245 -181 -449 -299 -613 -355 -214 -72 -638 -134 -756 -109 -72 15
-120 67 -159 174 -47 127 -66 231 -237 1286 -40 250 -83 455 -103 495 -5 11
-18 29 -28 40 -34 38 -75 298 -109 690 -22 263 -57 500 -94 640 -22 82 -23 99
-15 190 21 229 -23 479 -128 735 -31 73 -35 92 -30 142 4 46 2 56 -9 51 -10
-3 -12 0 -9 10 6 13 -18 47 -33 47 -15 0 -65 -40 -222 -175 -207 -178 -359
-295 -386 -295 -12 0 -36 -3 -53 -6 -30 -6 -31 -8 -15 -25 15 -17 12 -20 -56
-65 -105 -68 -275 -145 -435 -198 -127 -42 -620 -169 -755 -195 -145 -27 -368
-22 -680 14 -216 25 -284 51 -470 180 -141 97 -273 226 -306 299 -26 58 -62
225 -90 419 -19 138 -10 128 -179 198 -285 118 -379 178 -409 262 -8 23 -18
83 -21 134 -6 87 -5 96 30 198 47 139 44 152 -53 264 -83 96 -151 223 -175
331 -14 57 -14 67 0 94 21 41 29 211 15 331 l-7 60 -110 11 c-153 16 -294 69
-446 170 -110 73 -151 125 -188 238 -51 156 -46 202 45 427 56 140 103 241
282 619 77 162 152 329 166 370 56 156 79 314 79 540 -1 123 -5 160 -27 245
-14 55 -33 141 -41 192 -25 154 -32 168 -242 478 -70 104 -143 177 -228 231
-33 21 -87 63 -119 93 -137 129 -201 380 -152 596 29 125 85 272 231 600 56
127 123 282 148 345 95 242 311 885 302 900 -3 5 39 11 92 14 111 7 376 67
402 90 10 9 45 19 80 22 34 4 64 11 67 15 3 5 -15 23 -41 41 -56 40 -47 56 22
41 53 -13 86 -3 76 23 -4 12 6 10 45 -10 83 -42 100 -33 61 31 l-21 34 38 -16
c21 -9 51 -17 67 -19 26 -3 28 -1 23 20 -7 27 -3 29 25 13 15 -7 24 -7 35 2
12 10 11 16 -7 45 -11 19 -19 34 -16 34 2 0 37 -14 77 -30 56 -23 76 -27 87
-19 11 10 9 19 -12 55 l-26 43 72 -34 c55 -26 76 -32 90 -24 22 12 23 16 4 49
-8 14 -14 28 -15 31 0 4 39 -13 87 -38 79 -39 89 -42 100 -27 8 11 9 24 3 40
-5 13 -7 24 -5 24 3 0 41 -18 84 -40 66 -33 81 -37 91 -25 9 10 3 29 -24 84
l-36 70 38 -16 c20 -8 54 -24 74 -34 21 -11 42 -19 47 -19 14 0 19 31 9 57 -6
18 9 11 70 -34 42 -31 90 -67 106 -80 24 -20 31 -22 42 -11 11 11 9 26 -6 82
-11 38 -18 71 -17 73 2 2 48 -19 102 -47 54 -27 104 -50 110 -50 15 0 12 48
-4 78 -7 13 -10 26 -8 28 3 3 39 -8 81 -24 72 -28 77 -29 86 -12 7 13 5 29 -6
55 l-15 37 33 -7 c18 -4 61 -13 96 -22 45 -11 66 -12 76 -4 7 6 15 9 17 7 2
-3 41 -9 87 -16 46 -6 89 -13 95 -16 7 -2 21 2 31 9 18 13 17 15 -14 51 -18
20 -31 38 -29 40 2 2 42 -2 89 -10 83 -13 130 -11 130 7 0 9 -13 22 -70 68
-26 21 -13 28 20 11 24 -13 50 -3 43 16 -3 8 -3 14 -1 14 12 0 118 -40 147
-55 26 -13 35 -14 47 -4 13 10 12 15 -2 37 -16 24 -16 25 7 18 13 -4 38 -8 54
-10 17 -1 47 -12 66 -24 20 -12 41 -22 47 -22 18 0 22 30 8 58 -7 15 -16 40
-20 57 l-7 29 23 -19 c13 -11 37 -32 55 -48z m3576 -2776 c-68 -59 -211 -204
-313 -316 -65 -73 -58 -59 31 60 90 120 301 315 342 315 4 0 -23 -26 -60 -59z
m-149 -3071 c8 -8 3 -10 -19 -4 -32 7 -85 32 -85 39 0 7 93 -24 104 -35z"/>
<path d="M3173 10379 c-29 -5 -76 -18 -105 -29 -58 -22 -71 -25 -48 -10 12 8
12 10 -5 10 -27 -1 -125 -42 -164 -69 -27 -19 -30 -20 -24 -4 5 14 0 13 -23
-7 l-29 -25 24 27 c13 15 27 25 31 23 4 -2 7 2 7 10 0 23 -11 18 -81 -34 -56
-43 -75 -44 -43 -3 7 8 5 12 -6 12 -16 0 -70 -41 -99 -75 -17 -20 -17 -20 -11
5 6 23 5 24 -12 10 -9 -8 -33 -37 -51 -64 -35 -52 -33 -52 -50 3 -3 10 -14 4
-34 -19 -22 -25 -30 -29 -30 -16 0 9 -4 15 -8 12 -5 -3 -7 -19 -4 -36 2 -16 2
-30 0 -30 -3 0 -20 24 -39 53 -33 52 -33 52 -37 22 -6 -61 -12 -60 -57 10 -38
59 -45 66 -45 43 0 -58 32 -186 64 -253 45 -94 139 -226 144 -202 2 9 8 15 13
12 5 -4 9 21 10 57 1 62 1 62 14 33 8 -16 15 -41 15 -55 1 -21 6 -15 30 30
l30 55 -6 -55 -6 -55 36 53 c36 51 60 74 32 30 -8 -13 -17 -34 -21 -47 -7 -24
-7 -24 31 5 22 16 33 21 25 11 -18 -22 0 -23 59 -2 56 20 61 19 25 -6 -16 -12
-21 -18 -10 -13 57 22 591 199 664 220 124 36 259 55 382 55 121 -1 214 -17
344 -61 49 -17 91 -30 94 -30 3 0 -10 14 -29 31 l-35 30 28 -4 c15 -2 27 -3
27 -1 0 2 -20 15 -45 30 -64 37 -56 39 18 4 l62 -31 -40 37 c-76 70 -235 183
-307 219 -122 59 -194 75 -383 85 -203 11 -253 10 -322 -1z m-138 -155 c-33
-15 -66 -31 -74 -38 -11 -9 -13 -8 -9 4 5 15 100 59 128 59 8 0 -12 -11 -45
-25z m314 2 c-2 -2 -22 -6 -44 -9 -27 -4 -35 -3 -25 3 14 9 79 15 69 6z m-549
-331 c0 -2 -13 -11 -30 -20 -38 -19 -40 -11 -2 9 31 17 32 18 32 11z"/>
<path d="M9133 10350 c-62 -13 -171 -61 -236 -104 -141 -94 -242 -272 -220
-389 18 -96 97 -172 185 -179 31 -3 33 -1 34 27 0 17 -6 50 -13 74 -24 82 14
172 88 209 96 48 252 52 414 11 112 -29 194 -72 272 -143 58 -53 74 -75 120
-173 42 -87 58 -113 73 -113 14 0 20 7 20 23 0 33 -149 324 -225 437 -160 242
-342 355 -512 320z m-334 -511 c25 -26 57 -62 71 -80 l24 -32 -37 6 c-70 11
-127 80 -127 153 1 34 2 36 11 19 6 -11 32 -41 58 -66z"/>
<path d="M9245 9630 c-3 -5 22 -67 56 -137 116 -243 169 -385 169 -459 0 -112
-79 -244 -202 -335 -95 -71 -149 -100 -198 -108 -43 -8 -51 -44 -10 -49 39 -6
93 15 174 68 102 66 167 129 215 204 114 182 100 277 -107 719 -40 83 -55 107
-71 107 -11 0 -22 -4 -26 -10z"/>
<path d="M3375 9575 c-147 -17 -325 -51 -339 -65 -5 -5 -19 -11 -30 -11 -12
-1 10 -5 47 -9 38 -4 72 -12 77 -19 4 -7 13 -54 20 -105 18 -133 45 -228 86
-307 56 -106 122 -150 249 -165 102 -11 103 -12 56 -42 -41 -26 -41 -27 -16
-34 77 -20 278 93 421 236 76 77 202 252 241 336 l18 38 98 7 c53 4 99 11 102
15 12 19 -34 31 -216 60 -456 73 -629 86 -814 65z"/>
<path d="M8665 9241 c-48 -22 -93 -65 -101 -98 -24 -96 63 -239 119 -195 7 5
21 6 32 1 11 -4 30 -8 41 -8 l22 -1 -19 37 c-38 75 -21 84 87 45 43 -16 103
-35 133 -42 38 -9 72 -27 110 -58 54 -44 108 -72 165 -86 l29 -7 -6 53 c-4 29
-9 62 -12 74 -5 17 -2 21 16 20 60 -2 19 57 -98 140 -165 119 -405 177 -518
125z m-45 -136 c-6 -30 -8 -33 -9 -13 -1 25 8 62 14 56 2 -2 -1 -21 -5 -43z"/>
<path d="M8573 8694 c-3 -9 -1 -25 5 -35 11 -17 9 -17 -23 -3 -49 20 -79 19
-70 -3 21 -52 25 -95 23 -235 -2 -123 0 -156 12 -170 26 -32 80 -16 132 39 79
83 77 227 -6 366 -32 54 -61 70 -73 41z"/>
<path d="M2615 5620 c-133 -5 -140 -6 -143 -26 -2 -12 4 -24 12 -27 9 -4 123
-1 254 5 249 11 343 5 647 -37 61 -9 162 -17 225 -18 109 -2 115 -1 115 18 0
17 -8 20 -45 23 -67 4 -294 29 -465 52 -153 20 -291 22 -600 10z"/>
</g>
</svg>
