<?xml version="1.0" standalone="no"?>
<!DOCTYPE svg PUBLIC "-//W3C//DTD SVG 20010904//EN"
 "http://www.w3.org/TR/2001/REC-SVG-20010904/DTD/svg10.dtd">
<svg version="1.0" xmlns="http://www.w3.org/2000/svg"
 width="1000.000000pt" height="1000.000000pt" viewBox="0 0 1000.000000 1000.000000"
 preserveAspectRatio="xMidYMid meet">

<g transform="translate(0.000000,1000.000000) scale(0.100000,-0.100000)"
fill="#000000" stroke="none">
<path d="M4660 8905 c-58 -7 -136 -19 -173 -25 -60 -11 -68 -15 -64 -32 3 -10
29 -129 59 -264 49 -228 54 -245 73 -240 40 10 257 36 301 36 l44 0 0 56 0 56
-82 -3 -83 -4 -7 55 c-3 30 -5 56 -4 58 2 1 33 5 70 9 63 6 66 7 66 32 0 14
-3 37 -7 50 -6 22 -8 23 -73 17 l-68 -7 -7 46 c-3 26 -5 49 -2 51 2 2 41 7 87
11 l82 6 -6 36 c-3 20 -6 44 -6 54 0 21 -43 21 -200 2z"/>
<path d="M4970 8652 l0 -271 103 -3 c56 -2 104 -2 106 -1 2 1 8 44 13 95 14
147 19 156 62 125 17 -12 17 -20 6 -113 -7 -54 -13 -103 -14 -108 0 -5 43 -16
96 -25 l97 -16 20 82 c29 113 28 146 -5 172 -15 12 -33 21 -40 21 -7 0 -15 4
-18 9 -4 5 2 7 12 4 39 -10 86 12 104 47 22 43 23 118 2 148 -39 56 -174 89
-406 99 l-138 6 0 -271z m322 145 c10 -16 10 -25 -3 -69 -9 -33 -14 -38 -39
-38 -27 0 -30 3 -30 34 0 18 3 48 6 65 6 29 10 32 33 26 14 -4 29 -12 33 -18z"/>
<path d="M4154 8789 c-69 -11 -205 -60 -325 -117 l-99 -47 128 -235 c80 -145
134 -234 143 -233 8 1 59 21 114 46 55 25 133 57 173 72 101 38 132 65 132
118 0 58 -18 118 -43 145 -16 17 -32 22 -71 22 l-51 0 43 26 c24 14 47 36 52
49 21 54 -40 155 -93 155 -14 0 -31 2 -39 4 -7 2 -36 0 -64 -5z m-67 -131 c6
-7 16 -31 23 -52 11 -35 11 -41 -6 -53 -30 -22 -42 -15 -64 33 -25 57 -25 71
-2 77 31 8 39 7 49 -5z m93 -234 c26 -60 25 -78 -4 -92 -23 -10 -25 -8 -51 53
-29 69 -27 85 11 85 20 0 29 -9 44 -46z"/>
<path d="M5704 8791 c-45 -11 -54 -19 -75 -65 -38 -84 -23 -115 106 -225 85
-73 95 -85 95 -115 0 -19 -8 -44 -19 -57 -16 -21 -22 -22 -45 -11 -30 13 -32
28 -11 79 8 20 14 37 13 39 -2 1 -48 16 -103 32 -116 34 -117 34 -119 -55 -1
-54 0 -56 47 -98 75 -68 273 -136 348 -120 37 8 83 65 99 119 17 62 -4 103
-105 203 -68 67 -85 90 -85 113 0 37 30 56 61 39 14 -7 19 -17 15 -30 -3 -10
-8 -27 -11 -36 -5 -15 13 -26 97 -63 56 -25 105 -46 109 -48 11 -5 29 49 29
87 0 32 -7 45 -39 74 -104 94 -306 162 -407 138z"/>
<path d="M6166 8339 c-76 -127 -137 -232 -135 -234 2 -1 42 -28 89 -60 l85
-56 20 23 c11 14 43 55 71 92 l52 67 26 -23 25 -23 -71 -89 -72 -89 26 -21
c14 -11 51 -43 82 -70 l57 -50 190 190 c104 104 189 192 189 195 0 9 -189 174
-199 174 -5 0 -32 -29 -61 -65 -28 -36 -55 -69 -60 -73 -8 -9 -60 19 -60 32 0
4 25 41 55 81 30 40 55 76 55 80 0 6 -213 150 -221 150 -2 0 -66 -104 -143
-231z"/>
<path d="M3545 8497 c-69 -23 -207 -121 -345 -246 l-55 -50 192 -192 192 -193
43 37 c24 20 61 51 83 70 l39 34 -73 92 c-61 76 -71 94 -61 106 24 28 49 16
98 -47 26 -34 56 -73 67 -86 l21 -24 79 52 c44 28 81 53 83 55 2 2 -22 44 -53
94 -67 108 -84 116 -172 84 -11 -4 -5 6 15 24 36 35 42 75 18 121 -36 69 -96
93 -171 69z m-29 -197 l27 -41 -24 -25 -24 -25 -23 28 c-54 65 -58 74 -37 89
31 23 53 16 81 -26z"/>
<path d="M2977 8012 c-57 -62 -207 -282 -207 -304 0 -6 88 -99 196 -207 176
-175 197 -193 206 -176 6 11 33 58 61 105 l50 84 -38 33 -38 33 28 40 c16 23
31 43 35 45 4 2 24 -7 44 -22 44 -29 31 -37 130 76 46 53 54 67 44 77 -16 16
-314 167 -415 211 l-71 31 -25 -26z m193 -327 c-11 -16 -24 -30 -31 -30 -6 0
-46 38 -87 84 l-77 83 107 -53 107 -53 -19 -31z"/>
<path d="M4929 8019 c-85 -9 -141 -34 -206 -93 -58 -53 -89 -123 -80 -182 5
-30 2 -36 -22 -49 -40 -20 -79 -70 -87 -109 -6 -37 20 -111 49 -135 21 -17 22
-31 3 -31 -20 0 -169 -112 -228 -171 -50 -50 -112 -164 -124 -226 -4 -19 -12
-33 -21 -33 -30 0 -93 -42 -118 -77 -30 -45 -32 -92 -6 -148 18 -41 66 -89
108 -108 l23 -10 0 -579 0 -578 -32 0 c-18 0 -179 -11 -358 -25 l-325 -24 -20
26 c-11 14 -84 109 -162 212 -187 243 -175 231 -215 231 -19 0 -38 -4 -43 -9
-6 -5 -140 -75 -300 -156 -159 -81 -308 -158 -330 -170 -22 -12 -135 -70 -252
-129 -174 -87 -215 -112 -232 -139 -20 -33 -20 -44 -21 -888 -1 -470 2 -862 6
-872 14 -37 36 -38 326 -17 156 11 634 44 1063 75 429 30 806 57 838 60 l57 6
-2 -463 -3 -463 -40 -20 c-58 -29 -97 -91 -103 -161 -8 -91 34 -148 120 -162
40 -7 42 -10 54 -54 14 -58 52 -123 116 -205 61 -78 105 -116 171 -149 29 -15
53 -28 55 -29 1 -1 -9 -24 -23 -50 -48 -91 -26 -196 48 -231 33 -16 34 -18 29
-64 -6 -60 23 -128 70 -163 113 -86 291 -114 432 -67 74 24 156 155 156 250 0
28 5 42 19 49 49 27 71 164 36 230 -9 18 -15 34 -13 35 2 1 24 15 51 30 65 37
173 140 214 203 18 29 45 89 60 133 25 78 27 80 65 91 81 21 125 154 82 244
-16 34 -81 85 -109 85 -15 0 -16 49 -13 509 2 280 7 513 11 517 7 7 563 52
663 53 l41 1 166 -219 c124 -163 173 -220 193 -225 22 -6 129 42 593 265 311
149 579 284 594 298 l28 27 -1 874 c0 789 -2 876 -17 892 -8 9 -23 20 -33 23
-10 3 -172 -6 -361 -20 -189 -13 -627 -45 -974 -70 -346 -25 -686 -50 -754
-55 -68 -6 -130 -10 -137 -10 -12 0 -14 90 -14 524 l0 524 34 6 c111 21 146
230 51 302 -19 14 -46 29 -62 33 -25 7 -30 15 -49 89 -15 60 -31 94 -62 134
-71 93 -121 137 -192 173 -38 19 -71 39 -74 44 -4 5 5 26 19 47 45 67 30 141
-41 204 -36 31 -37 35 -35 90 3 70 -11 101 -72 157 -85 78 -162 104 -278 92z
m196 -79 c65 -38 109 -105 109 -169 l1 -46 -275 0 -275 0 -3 29 c-6 52 26 114
81 158 62 48 85 58 157 67 74 9 145 -5 205 -39z m-126 -260 l264 0 39 -40 c49
-53 53 -108 10 -159 l-28 -34 -311 -4 c-350 -5 -346 -6 -384 68 -24 48 -24 66
0 105 22 36 97 77 126 69 11 -2 139 -5 284 -5z m331 -317 c64 -32 208 -151
251 -206 18 -24 48 -117 49 -154 0 -8 -171 -11 -676 -12 l-676 -1 7 32 c23
108 111 215 254 313 71 49 75 50 164 56 51 3 198 6 327 5 l236 -1 64 -32z
m408 -433 c38 -23 52 -54 52 -113 0 -52 -39 -113 -78 -124 -15 -5 -351 -8
-748 -8 l-721 0 -36 28 c-46 35 -67 74 -67 125 0 43 28 88 64 102 11 5 354 9
761 9 724 1 741 1 773 -19z m-1395 -847 c-3 -307 -6 -564 -8 -570 -3 -7 -11
-13 -20 -13 -13 0 -15 65 -15 570 l0 570 24 0 23 0 -4 -557z m406 459 c-107
-53 -229 -121 -271 -150 l-78 -53 0 151 0 150 272 0 272 0 -195 -98z m861
-427 c0 -460 -2 -525 -15 -525 -13 0 -15 65 -15 525 0 460 2 525 15 525 13 0
15 -65 15 -525z m-80 145 l0 -170 -26 -10 c-14 -6 -30 -10 -35 -10 -10 0 -3
316 6 348 3 6 16 12 30 12 l25 0 0 -170z m-180 -52 l0 -173 -108 -39 c-236
-85 -625 -281 -767 -387 l-80 -59 -3 177 c-2 135 1 179 10 185 86 54 447 256
563 315 132 67 337 151 373 152 9 1 12 -40 12 -171z m180 -578 c0 -25 -5 -40
-12 -40 -7 0 -23 -3 -35 -6 -21 -6 -23 -3 -23 30 0 29 5 39 23 46 40 16 47 12
47 -30z m2301 -790 c2 -656 0 -765 -12 -767 -8 -2 -333 -25 -724 -53 -769 -54
-2039 -144 -3818 -270 -621 -44 -1146 -80 -1167 -80 l-38 0 5 758 c3 416 7
758 8 760 2 2 349 28 771 59 423 30 1714 124 2869 207 1155 84 2101 152 2102
152 1 -1 3 -345 4 -766z m-2471 751 c0 -12 -26 -21 -58 -21 l-27 1 30 14 c36
16 55 18 55 6z m254 -1967 c-3 -861 -4 -884 -19 -884 -13 0 -15 63 -15 508 0
280 3 512 7 516 22 22 28 -9 27 -140z m-96 109 c-2 -20 -9 -29 -25 -31 -20 -3
-23 1 -23 27 0 27 4 31 26 31 22 0 25 -4 22 -27z m-168 -21 c0 -38 -1 -39 -57
-56 -86 -27 -341 -125 -398 -154 -27 -13 -131 -75 -230 -137 -99 -61 -201
-124 -227 -139 l-48 -28 0 164 0 163 88 49 c48 27 116 67 152 89 l65 39 305
23 c168 12 315 23 328 24 19 1 22 -4 22 -37z m-1012 -505 l2 -467 -27 0 -28 0
2 102 c2 57 4 263 5 458 2 195 7 361 11 368 29 44 32 -1 35 -461z m1182 -197
l0 -270 -147 0 -148 0 40 23 c45 25 134 130 167 197 19 37 23 64 26 155 4 152
5 156 55 164 4 0 7 -120 7 -269z m-172 107 c-3 -107 -5 -117 -40 -188 -46 -92
-95 -143 -165 -169 -51 -19 -74 -20 -391 -18 l-337 3 120 81 c139 94 295 184
483 278 120 60 286 125 320 126 11 0 13 -24 10 -113z m390 -462 c41 -34 48
-86 20 -142 -19 -37 -26 -43 -70 -52 -57 -13 -1332 -14 -1417 -2 -46 7 -60 14
-93 49 -41 45 -46 67 -23 112 32 62 -1 59 812 60 l741 0 30 -25z m-100 -269
c2 -2 -11 -41 -29 -86 -26 -69 -43 -95 -101 -156 -78 -81 -144 -129 -197 -144
-20 -5 -176 -10 -347 -12 l-310 -3 -67 33 c-37 18 -91 55 -120 82 -91 83 -190
242 -175 281 5 12 114 14 674 11 367 -2 670 -4 672 -6z m-338 -472 c21 -21 25
-33 24 -84 -2 -78 -20 -107 -76 -115 -24 -3 -170 -5 -325 -3 l-281 3 -26 24
c-35 33 -37 112 -3 162 l23 34 154 3 c85 1 155 4 156 5 1 1 76 1 166 -1 157
-4 164 -4 188 -28z m-60 -259 c19 -23 6 -90 -26 -136 -15 -22 -48 -52 -73 -67
-43 -25 -54 -27 -161 -27 -108 0 -119 2 -173 30 -32 16 -69 42 -82 57 -31 37
-47 92 -35 124 l9 24 258 3 c142 1 261 3 264 5 4 1 12 -5 19 -13z"/>
<path d="M4955 7933 c-46 -9 -49 -12 -29 -34 18 -20 18 -21 -1 -56 -29 -53
-66 -77 -117 -75 -75 3 -27 -18 68 -30 94 -12 284 -3 284 13 0 5 -7 9 -15 9
-23 0 -65 30 -65 47 0 8 14 20 30 26 17 6 30 14 30 18 0 11 -61 60 -84 68 -32
12 -79 18 -101 14z"/>
<path d="M4620 7571 c0 -40 43 -88 89 -101 21 -5 121 -10 222 -10 286 0 309 4
343 61 16 28 22 79 9 79 -5 0 -15 -13 -25 -29 -25 -44 -57 -60 -148 -72 -181
-25 -358 4 -442 71 -20 17 -39 30 -42 30 -3 0 -6 -13 -6 -29z"/>
<path d="M4856 7373 l-28 -5 20 -21 c10 -12 22 -36 25 -53 5 -26 1 -36 -26
-62 -42 -41 -149 -90 -227 -104 -47 -9 -81 -9 -147 1 -47 6 -89 8 -93 4 -10
-12 -53 -123 -49 -126 13 -8 1258 6 1253 14 -3 5 -29 9 -57 9 -84 1 -207 37
-207 61 0 35 27 69 82 101 59 35 60 36 37 48 -13 7 -48 33 -77 57 -75 64 -117
75 -312 78 -91 2 -178 1 -194 -2z"/>
<path d="M5423 6913 l-72 -4 19 -32 c19 -32 19 -33 0 -64 -37 -62 -27 -60
-470 -66 -364 -4 -562 2 -643 19 -63 13 -72 94 -13 120 26 11 27 13 9 14 -45
0 -72 -18 -84 -58 -15 -51 2 -90 51 -115 32 -16 72 -17 465 -17 401 1 906 15
984 26 19 3 47 18 63 34 35 36 37 78 5 108 -43 41 -85 46 -314 35z"/>
<path d="M7496 5509 c-47 -37 -69 -103 -47 -138 7 -11 27 0 92 49 111 84 107
79 85 96 -30 21 -98 18 -130 -7z"/>
<path d="M7586 5384 c-47 -36 -86 -69 -86 -74 0 -24 100 -27 136 -4 14 10 32
30 40 45 15 31 19 85 5 93 -4 3 -47 -24 -95 -60z"/>
<path d="M6899 5229 c-140 -15 -240 -63 -273 -133 -23 -49 -23 -173 0 -221 23
-50 45 -64 193 -129 71 -32 137 -66 147 -77 9 -10 19 -41 22 -68 3 -40 1 -52
-17 -70 -23 -23 -60 -28 -79 -9 -7 7 -12 42 -12 86 l0 74 -62 -6 c-35 -3 -96
-9 -137 -12 l-74 -7 7 -76 c9 -96 30 -140 80 -168 147 -81 466 -31 538 85 26
42 36 157 19 218 -22 82 -66 116 -231 183 -110 44 -150 75 -150 117 0 54 43
94 80 74 16 -9 20 -21 20 -65 l0 -55 58 6 c31 3 91 8 132 12 l75 7 -3 65 c-7
125 -47 155 -227 174 -16 2 -64 0 -106 -5z"/>
<path d="M6408 5173 l-38 -4 0 -80 c0 -72 2 -79 20 -79 11 0 20 -4 20 -10 0
-5 -9 -15 -20 -22 -21 -13 -29 -68 -10 -68 23 0 78 29 112 59 39 34 58 88 58
165 l0 46 -52 -2 c-29 -1 -70 -3 -90 -5z"/>
<path d="M5903 5150 c-131 -24 -238 -92 -265 -168 -9 -27 -13 -108 -13 -292 0
-250 0 -256 23 -293 53 -84 193 -122 352 -94 145 25 242 88 268 175 15 49 16
491 2 543 -28 100 -196 159 -367 129z m87 -149 c13 -25 14 -500 1 -534 -12
-30 -46 -44 -66 -27 -13 10 -15 59 -15 286 0 249 2 274 18 283 27 16 50 13 62
-8z"/>
<path d="M2191 5136 c-23 -13 -23 -14 50 -68 41 -30 86 -62 102 -72 l27 -18 0
42 c0 98 -97 161 -179 116z"/>
<path d="M5133 5080 c-80 -15 -156 -47 -202 -86 -74 -63 -76 -71 -79 -320 -4
-232 5 -321 36 -364 10 -14 44 -38 77 -55 53 -27 67 -29 159 -29 108 0 187 15
251 46 110 55 141 105 151 243 l7 88 -49 -6 c-27 -3 -93 -9 -146 -13 l-98 -7
0 -93 c0 -89 -1 -94 -25 -110 -21 -14 -31 -15 -50 -6 l-25 12 0 269 c0 291 2
301 54 301 40 0 46 -18 46 -128 l0 -105 113 7 c61 4 127 9 146 13 l34 6 -6 98
c-8 144 -42 199 -146 229 -51 16 -186 21 -248 10z"/>
<path d="M2130 5025 c0 -88 85 -144 166 -110 l38 16 -95 69 c-52 38 -97 70
-101 70 -5 0 -8 -20 -8 -45z"/>
<path d="M4363 5020 c-80 -15 -156 -47 -202 -86 -74 -63 -76 -71 -79 -320 -4
-232 5 -321 36 -364 10 -14 44 -38 77 -55 53 -27 67 -29 159 -29 108 0 187 15
251 46 110 55 141 105 151 243 l7 88 -49 -6 c-27 -3 -93 -9 -146 -13 l-98 -7
0 -93 c0 -89 -1 -94 -25 -110 -21 -14 -31 -15 -50 -6 l-25 12 0 269 c0 291 2
301 54 301 40 0 46 -18 46 -128 l0 -105 113 7 c61 4 127 9 146 13 l34 6 -6 98
c-8 144 -42 199 -146 229 -51 16 -186 21 -248 10z"/>
<path d="M3805 4963 c-22 -2 -59 -6 -82 -9 l-43 -5 0 -411 0 -411 98 7 c53 4
116 9 140 12 l42 6 0 409 0 409 -57 -2 c-32 -1 -76 -3 -98 -5z"/>
<path d="M3333 4916 c-72 -6 -134 -14 -138 -17 -3 -4 -19 -87 -36 -185 -16
-99 -31 -183 -33 -189 -1 -5 -19 73 -39 174 -19 101 -38 185 -40 188 -5 4
-243 -12 -324 -23 l-43 -5 0 -411 0 -410 108 6 c59 4 115 10 125 12 16 5 17
27 18 267 l1 262 51 -259 51 -259 85 6 c46 4 87 11 91 17 4 6 26 122 50 258
23 136 46 254 51 262 5 8 9 -103 9 -254 l0 -268 83 6 c45 4 99 9 120 12 l37 6
0 409 0 409 -47 -1 c-27 -1 -107 -7 -180 -13z"/>
<path d="M7556 4337 c-15 -11 -8 -20 70 -84 48 -40 91 -70 96 -67 4 3 8 23 8
46 0 34 -6 47 -39 79 -32 32 -46 39 -78 39 -22 0 -47 -6 -57 -13z"/>
<path d="M7487 4253 c-13 -65 31 -134 93 -148 32 -7 103 11 98 26 -4 10 -170
149 -179 149 -4 0 -9 -12 -12 -27z"/>
<path d="M2182 3940 c-41 -25 -66 -81 -57 -127 3 -18 10 -33 16 -33 14 0 179
140 179 151 0 13 -45 29 -78 29 -15 0 -42 -9 -60 -20z"/>
<path d="M2267 3804 c-88 -73 -88 -74 -62 -84 14 -5 33 -10 41 -10 33 0 85 31
104 62 20 32 27 92 13 101 -5 3 -48 -28 -96 -69z"/>
<path d="M4915 2660 c-615 -5 -663 -6 -688 -23 -74 -48 -50 -139 40 -153 49
-7 82 9 40 20 -28 7 -51 58 -45 98 l3 23 534 3 c417 2 537 -1 549 -10 8 -7 21
-28 29 -47 13 -31 13 -35 -8 -57 -12 -13 -19 -27 -15 -31 12 -12 297 -13 334
-2 58 19 82 104 41 148 -28 30 -62 41 -112 39 -23 -2 -339 -5 -702 -8z"/>
<path d="M4335 2340 c7 -37 29 -85 43 -94 5 -3 27 4 48 15 33 17 50 20 112 14
151 -13 267 -69 302 -147 21 -47 15 -78 -18 -93 -12 -5 -22 -16 -22 -23 0 -10
44 -11 228 -6 l227 6 63 35 c71 39 147 107 137 122 -3 6 -24 11 -45 11 -79 0
-124 112 -63 159 14 12 24 23 22 26 -3 2 -238 6 -523 7 l-517 3 6 -35z"/>
<path d="M4733 1911 c-47 -8 -69 -23 -76 -52 -5 -19 -4 -19 17 -5 13 8 61 20
107 27 46 6 93 15 104 20 20 8 19 8 -1 8 -12 1 -41 3 -65 5 -24 3 -63 1 -86
-3z"/>
<path d="M5055 1911 l-30 -8 30 -6 c25 -6 141 -34 208 -51 14 -4 15 -2 7 15
-6 10 -22 26 -35 35 -28 18 -134 27 -180 15z"/>
<path d="M4757 1632 c-22 -24 -22 -35 1 -23 9 5 38 12 63 16 40 6 50 4 74 -17
37 -32 49 -120 19 -143 -17 -14 -14 -14 36 -9 71 7 146 29 188 54 40 24 67 78
58 114 l-6 26 -209 0 c-189 0 -209 -2 -224 -18z"/>
<path d="M6784 8002 c-21 -16 -82 -69 -134 -119 l-95 -90 0 -64 c1 -74 32
-142 111 -242 62 -80 126 -120 180 -114 42 4 241 105 298 151 103 81 -35 395
-213 486 -56 28 -100 26 -147 -8z m234 -209 c3 -17 -21 -38 -125 -110 -164
-115 -167 -117 -184 -97 -10 12 -9 18 3 30 38 39 275 204 288 201 8 -1 16 -12
18 -24z"/>
<path d="M2693 7454 c-65 -33 -119 -134 -178 -331 -50 -170 -76 -293 -62 -298
29 -9 518 -97 521 -94 1 2 10 42 20 89 10 47 40 155 68 240 50 157 55 202 27
237 -18 21 -124 73 -150 73 -13 0 -38 -17 -59 -39 l-36 -38 0 65 c1 58 -2 66
-24 83 -36 28 -89 33 -127 13z m17 -279 c22 -12 30 -23 30 -43 0 -48 -10 -53
-69 -34 -61 19 -70 32 -47 67 19 29 44 32 86 10z m208 -75 c32 -14 42 -25 42
-42 0 -46 -11 -50 -81 -27 -35 12 -66 23 -68 25 -2 2 2 17 9 34 15 36 36 38
98 10z"/>
<path d="M7065 7334 c-142 -67 -239 -119 -238 -126 2 -15 73 -211 78 -216 2
-2 46 10 99 27 53 17 100 31 104 31 5 0 17 -32 27 -72 23 -88 70 -184 97 -199
24 -13 117 -4 165 16 88 37 84 178 -14 459 -25 72 -53 145 -62 162 l-16 31
-240 -113z m275 -242 c0 -31 -21 -46 -83 -57 -30 -6 -37 -3 -47 15 -14 27 -11
31 48 52 70 25 82 23 82 -10z"/>
</g>
</svg>
